<svg width="48" height="48" viewBox="0 0 48 48" xmlns="http://www.w3.org/2000/svg">
  <rect width="48" height="48" rx="11" fill="#0969da" />
  <g fill="none" stroke="#ffffff" stroke-linecap="round" stroke-linejoin="round">
    <path stroke-width="3" d="M24 9.5C21.5 6 17.5 5.2 15 7C11.5 5.5 8 7.5 7.6 11.4C4.6 12.6 3.6 16.4 5.8 19.2C3.8 22 4.4 26 6.9 27.8C5.4 31 7.2 34.8 11 35.8C12 39.6 16 41.6 19.8 40.6C21.2 42.4 24 42.2 24 39.4C24 42.2 26.8 42.4 28.2 40.6C32 41.6 36 39.6 37 35.8C40.8 34.8 42.6 31 41.1 27.8C43.6 26 44.2 22 42.2 19.2C44.4 16.4 43.4 12.6 40.4 11.4C40 7.5 36.5 5.5 33 7C30.5 5.2 26.5 6 24 9.5Z" />
    <path stroke-width="2.4" d="M24 10.5C22.6 15 25.4 19 24 23.5C22.6 28 25 33 24 39" />
    <path stroke-width="2.2" d="M23 16C19 14.5 15 15 12.5 17.5" />
    <path stroke-width="2.2" d="M23.2 23C18.5 22.2 14 22.6 11 24.5" />
    <path stroke-width="2.2" d="M23 30C19 30.5 15 31.5 12.8 34" />
    <path stroke-width="2.2" d="M25 16C29 14.5 33 15 35.5 17.5" />
    <path stroke-width="2.2" d="M24.8 23C29.5 22.2 34 22.6 37 24.5" />
    <path stroke-width="2.2" d="M25 30C29 30.5 33 31.5 35.2 34" />
  </g>
</svg>
